# xmcd CD database file
#
# Track frame offsets:
#	150
#	15755
#	41184
#	65787
#	88164
#	110055
#	135430
#	155914
#	175523
#	220006
#	241001
#
# Disc length: 3556 seconds
#
# Revision: 2
# Processed by: cddbd v1.5.1PL0 Copyright (c) Steve Scherf et al.
# Submitted via: CDex 1.51
#
DISCID=8f0de20b
DTITLE=Jack or Jive - Towards the event horizon
DYEAR=2002
DGENRE=New Age
TTITLE0=The Last Card
TTITLE1=Hiumi
TTITLE2=Hand To Hand
TTITLE3=Intersecting Hypocrisy
TTITLE4=Towards The Event Horizon
TTITLE5=Harmony Of Pulse
TTITLE6=Interstice Of Impulse
TTITLE7=Wings
TTITLE8=Deja Vu 2
TTITLE9=The Moon Seen At The End
TTITLE10=Farewell To Tokyo, Japan
EXTD=YEAR: 2002
EXTT0=
EXTT1=
EXTT2=
EXTT3=
EXTT4=
EXTT5=
EXTT6=
EXTT7=
EXTT8=
EXTT9=
EXTT10=
PLAYORDER=
